<svg width="1440" height="560" viewBox="0 0 1440 560" fill="none" xmlns="http://www.w3.org/2000/svg">
<g clip-path="url(#clip0_1_2)">
<mask id="mask0_1_2" style="mask-type:luminance" maskUnits="userSpaceOnUse" x="0" y="0" width="1440" height="560">
<path d="M1440 0H0V560H1440V0Z" fill="white"/>
</mask>
<g mask="url(#mask0_1_2)">
<path d="M1440 0H6.10352e-05V560H1440V0Z" fill="#6AA4C9"/>
<path d="M6.10352e-05 523.756C93.1151 498.599 153.032 416.179 230.755 359.062C302.594 306.269 394.292 277.544 439.553 200.737C486.836 120.499 482.827 23.645 483.291 -69.487C483.828 -177.186 509.775 -299.323 442.466 -383.399C375.019 -467.649 248.851 -464.55 144.619 -492.528C43.0201 -519.799 -58.5769 -572.81 -160.065 -545.131C-262.125 -517.296 -337.985 -431.933 -397.711 -344.618C-453.118 -263.617 -466.707 -166.14 -485.23 -69.766C-504.683 31.447 -535.61 132.805 -508.587 232.264C-479.025 341.066 -425.541 453.881 -327.721 509.945C-230.898 565.438 -107.735 552.863 6.10352e-05 523.756Z" fill="#5F9DC5"/>
<path d="M1440 1246.55C1564.71 1219.37 1635.2 1092.85 1722.76 999.975C1790.1 928.549 1850.3 855.283 1892.46 766.633C1935.21 676.758 1960.72 583.315 1968.12 484.068C1977.19 362.415 2007.06 228.615 1940.17 126.596C1871.87 22.416 1737.51 -11.153 1618.76 -48.789C1497.79 -87.127 1371.87 -121.79 1248.36 -92.657C1121.46 -62.722 995.934 4.566 926.001 114.617C858.877 220.249 885.456 354.965 884.391 480.115C883.467 588.74 891.629 692.581 920.192 797.388C953.744 920.502 968.577 1059.88 1065.13 1143.31C1165.23 1229.8 1310.75 1274.72 1440 1246.55Z" fill="#75ABCD"/>
</g>
<path d="M1405.67 560H1032C1037.98 496.523 1074.18 442.301 1127.64 413.274L1096.64 359.46C1094.89 356.443 1095.91 352.611 1098.92 350.858C1101.93 349.105 1105.75 350.124 1107.5 353.141L1138.9 407.648C1162.86 396.681 1189.83 390.566 1218.84 390.566C1247.84 390.566 1274.81 396.681 1298.77 407.648L1330.17 353.141C1331.88 350.124 1335.75 349.105 1338.72 350.858C1341.69 352.611 1342.74 356.443 1340.99 359.46L1310 413.274C1363.49 442.301 1399.69 496.523 1405.67 560ZM1304.59 507.409C1313.25 507.409 1320.29 500.356 1320.25 491.713C1320.25 483.07 1313.25 476.017 1304.59 476.017C1295.96 476.017 1288.93 483.029 1288.93 491.713C1288.93 500.356 1295.92 507.409 1304.59 507.409ZM1133.05 507.409C1141.71 507.409 1148.75 500.356 1148.71 491.713C1148.71 483.07 1141.71 476.017 1133.05 476.017C1124.42 476.017 1117.38 483.029 1117.38 491.713C1117.38 500.356 1124.38 507.409 1133.05 507.409Z" fill="#3DDC84"/>
<path d="M77.032 70.2H87.4V115H77.032V70.2ZM56.68 115H46.312V70.2H56.68V115ZM77.8 96.632H55.912V87.864H77.8V96.632ZM97.2955 115V80.568H107.28V115H97.2955ZM102.288 75.768C100.453 75.768 98.9595 75.2347 97.8075 74.168C96.6555 73.1013 96.0795 71.7787 96.0795 70.2C96.0795 68.6213 96.6555 67.2987 97.8075 66.232C98.9595 65.1653 100.453 64.632 102.288 64.632C104.122 64.632 105.616 65.144 106.768 66.168C107.92 67.1493 108.496 68.4293 108.496 70.008C108.496 71.672 107.92 73.0587 106.768 74.168C105.658 75.2347 104.165 75.768 102.288 75.768ZM148.751 115.512C144.697 115.512 141.54 114.488 139.279 112.44C137.017 110.349 135.887 107.256 135.887 103.16V72.952H145.871V103.032C145.871 104.483 146.255 105.613 147.023 106.424C147.791 107.192 148.836 107.576 150.159 107.576C151.737 107.576 153.081 107.149 154.191 106.296L156.879 113.336C155.855 114.061 154.617 114.616 153.167 115C151.759 115.341 150.287 115.512 148.751 115.512ZM130.575 89.016V81.336H154.447V89.016H130.575ZM183.411 80.056C186.142 80.056 188.574 80.6107 190.707 81.72C192.883 82.7867 194.59 84.4507 195.827 86.712C197.064 88.9307 197.683 91.7893 197.683 95.288V115H187.699V96.824C187.699 94.0507 187.08 92.0027 185.843 90.68C184.648 89.3573 182.942 88.696 180.723 88.696C179.144 88.696 177.715 89.0373 176.435 89.72C175.198 90.36 174.216 91.3627 173.491 92.728C172.808 94.0933 172.467 95.8427 172.467 97.976V115H162.483V67.512H172.467V90.104L170.227 87.224C171.464 84.92 173.235 83.1493 175.539 81.912C177.843 80.6747 180.467 80.056 183.411 80.056ZM224.071 115.512C220.146 115.512 216.69 114.744 213.703 113.208C210.759 111.672 208.476 109.581 206.855 106.936C205.234 104.248 204.423 101.197 204.423 97.784C204.423 94.328 205.212 91.2773 206.791 88.632C208.412 85.944 210.61 83.8533 213.383 82.36C216.156 80.824 219.292 80.056 222.791 80.056C226.162 80.056 229.191 80.7813 231.879 82.232C234.61 83.64 236.764 85.688 238.343 88.376C239.922 91.0213 240.711 94.2 240.711 97.912C240.711 98.296 240.69 98.744 240.647 99.256C240.604 99.7253 240.562 100.173 240.519 100.6H212.551V94.776H235.271L231.431 96.504C231.431 94.712 231.068 93.1547 230.343 91.832C229.618 90.5093 228.615 89.4853 227.335 88.76C226.055 87.992 224.562 87.608 222.855 87.608C221.148 87.608 219.634 87.992 218.311 88.76C217.031 89.4853 216.028 90.5307 215.303 91.896C214.578 93.2187 214.215 94.7973 214.215 96.632V98.168C214.215 100.045 214.62 101.709 215.431 103.16C216.284 104.568 217.458 105.656 218.951 106.424C220.487 107.149 222.279 107.512 224.327 107.512C226.162 107.512 227.762 107.235 229.127 106.68C230.535 106.125 231.815 105.293 232.967 104.184L238.279 109.944C236.7 111.736 234.716 113.123 232.327 114.104C229.938 115.043 227.186 115.512 224.071 115.512ZM247.358 115V80.568H256.894V90.296L255.55 87.48C256.574 85.048 258.217 83.2133 260.478 81.976C262.739 80.696 265.491 80.056 268.734 80.056V89.272C268.307 89.2293 267.923 89.208 267.582 89.208C267.241 89.1653 266.878 89.144 266.494 89.144C263.763 89.144 261.545 89.9333 259.838 91.512C258.174 93.048 257.342 95.4587 257.342 98.744V115H247.358ZM291.509 115.512C287.583 115.512 284.127 114.744 281.141 113.208C278.197 111.672 275.914 109.581 274.293 106.936C272.671 104.248 271.861 101.197 271.861 97.784C271.861 94.328 272.65 91.2773 274.229 88.632C275.85 85.944 278.047 83.8533 280.821 82.36C283.594 80.824 286.73 80.056 290.229 80.056C293.599 80.056 296.629 80.7813 299.317 82.232C302.047 83.64 304.202 85.688 305.781 88.376C307.359 91.0213 308.149 94.2 308.149 97.912C308.149 98.296 308.127 98.744 308.085 99.256C308.042 99.7253 307.999 100.173 307.957 100.6H279.989V94.776H302.708L298.869 96.504C298.869 94.712 298.506 93.1547 297.781 91.832C297.055 90.5093 296.053 89.4853 294.773 88.76C293.493 87.992 291.999 87.608 290.293 87.608C288.586 87.608 287.071 87.992 285.749 88.76C284.469 89.4853 283.466 90.5307 282.741 91.896C282.015 93.2187 281.653 94.7973 281.653 96.632V98.168C281.653 100.045 282.058 101.709 282.869 103.16C283.722 104.568 284.895 105.656 286.389 106.424C287.925 107.149 289.717 107.512 291.765 107.512C293.599 107.512 295.199 107.235 296.565 106.68C297.973 106.125 299.253 105.293 300.405 104.184L305.717 109.944C304.138 111.736 302.154 113.123 299.765 114.104C297.375 115.043 294.623 115.512 291.509 115.512ZM421.818 124.856L426.042 109.496L427.45 115.256C425.615 115.256 424.1 114.723 422.906 113.656C421.754 112.589 421.178 111.117 421.178 109.24C421.178 107.363 421.775 105.869 422.97 104.76C424.164 103.651 425.636 103.096 427.385 103.096C429.178 103.096 430.65 103.672 431.802 104.824C432.954 105.933 433.53 107.405 433.53 109.24C433.53 109.795 433.487 110.349 433.402 110.904C433.316 111.416 433.146 112.056 432.89 112.824C432.676 113.549 432.314 114.488 431.802 115.64L428.154 124.856H421.818ZM459.125 115V70.2H469.493V115H459.125ZM478.589 88.376L477.949 70.2H486.461L485.757 88.376H478.589ZM538.267 80.056C540.997 80.056 543.408 80.6107 545.499 81.72C547.632 82.7867 549.296 84.4507 550.491 86.712C551.728 88.9307 552.347 91.7893 552.347 95.288V115H542.363V96.824C542.363 94.0507 541.787 92.0027 540.635 90.68C539.483 89.3573 537.861 88.696 535.771 88.696C534.32 88.696 533.019 89.0373 531.867 89.72C530.715 90.36 529.819 91.3413 529.179 92.664C528.539 93.9867 528.219 95.672 528.219 97.72V115H518.235V96.824C518.235 94.0507 517.659 92.0027 516.507 90.68C515.397 89.3573 513.797 88.696 511.707 88.696C510.256 88.696 508.955 89.0373 507.803 89.72C506.651 90.36 505.755 91.3413 505.115 92.664C504.475 93.9867 504.155 95.672 504.155 97.72V115H494.171V80.568H503.707V89.976L501.915 87.224C503.109 84.8773 504.795 83.1067 506.971 81.912C509.189 80.6747 511.707 80.056 514.523 80.056C517.68 80.056 520.432 80.8667 522.779 82.488C525.168 84.0667 526.747 86.4987 527.515 89.784L523.995 88.824C525.147 86.136 526.981 84.0027 529.499 82.424C532.059 80.8453 534.981 80.056 538.267 80.056Z" fill="#343434"/>
<path d="M48.52 209V153H57.08L92.2 196.12H87.96V153H98.28V209H89.72L54.6 165.88H58.84V209H48.52ZM112.326 209V166.28H122.326V209H112.326ZM117.366 159.24C115.499 159.24 113.952 158.653 112.726 157.48C111.552 156.307 110.966 154.893 110.966 153.24C110.966 151.533 111.552 150.12 112.726 149C113.952 147.827 115.499 147.24 117.366 147.24C119.232 147.24 120.752 147.8 121.926 148.92C123.152 149.987 123.766 151.347 123.766 153C123.766 154.76 123.179 156.253 122.006 157.48C120.832 158.653 119.286 159.24 117.366 159.24ZM143.611 199.48L143.851 186.92L166.171 166.28H178.171L159.211 185.32L153.931 189.72L143.611 199.48ZM135.451 209V149.64H145.451V209H135.451ZM167.691 209L152.091 189.72L158.411 181.72L179.851 209H167.691ZM186.31 209V166.28H196.31V209H186.31ZM191.35 159.24C189.483 159.24 187.937 158.653 186.71 157.48C185.537 156.307 184.95 154.893 184.95 153.24C184.95 151.533 185.537 150.12 186.71 149C187.937 147.827 189.483 147.24 191.35 147.24C193.217 147.24 194.737 147.8 195.91 148.92C197.137 149.987 197.75 151.347 197.75 153C197.75 154.76 197.163 156.253 195.99 157.48C194.817 158.653 193.27 159.24 191.35 159.24ZM225.515 209.56C220.822 209.56 217.195 208.36 214.635 205.96C212.075 203.507 210.795 199.907 210.795 195.16V156.84H220.795V194.92C220.795 196.947 221.302 198.52 222.315 199.64C223.382 200.76 224.848 201.32 226.715 201.32C228.955 201.32 230.822 200.733 232.315 199.56L235.115 206.68C233.942 207.64 232.502 208.36 230.795 208.84C229.088 209.32 227.328 209.56 225.515 209.56ZM203.755 174.6V166.6H232.235V174.6H203.755ZM269.661 209V200.36L269.101 198.52V183.4C269.101 180.467 268.221 178.2 266.461 176.6C264.701 174.947 262.035 174.12 258.461 174.12C256.061 174.12 253.688 174.493 251.341 175.24C249.048 175.987 247.101 177.027 245.501 178.36L241.581 171.08C243.875 169.32 246.595 168.013 249.741 167.16C252.941 166.253 256.248 165.8 259.661 165.8C265.848 165.8 270.621 167.293 273.981 170.28C277.395 173.213 279.101 177.773 279.101 183.96V209H269.661ZM256.221 209.56C253.021 209.56 250.221 209.027 247.821 207.96C245.421 206.84 243.555 205.32 242.221 203.4C240.941 201.427 240.301 199.213 240.301 196.76C240.301 194.36 240.861 192.2 241.981 190.28C243.155 188.36 245.048 186.84 247.661 185.72C250.275 184.6 253.741 184.04 258.061 184.04H270.461V190.68H258.781C255.368 190.68 253.075 191.24 251.901 192.36C250.728 193.427 250.141 194.76 250.141 196.36C250.141 198.173 250.861 199.613 252.301 200.68C253.741 201.747 255.741 202.28 258.301 202.28C260.755 202.28 262.941 201.72 264.861 200.6C266.835 199.48 268.248 197.827 269.101 195.64L270.781 201.64C269.821 204.147 268.088 206.093 265.581 207.48C263.128 208.867 260.008 209.56 256.221 209.56ZM307.084 209L332.284 153H342.524L367.804 209H356.924L335.244 158.52H339.404L317.804 209H307.084ZM318.684 196.04L321.484 187.88H351.724L354.524 196.04H318.684ZM373.966 209V149.64H383.966V209H373.966ZM417.171 209.56C412.425 209.56 408.265 208.627 404.691 206.76C401.171 204.84 398.425 202.227 396.451 198.92C394.531 195.613 393.571 191.853 393.571 187.64C393.571 183.373 394.505 179.613 396.371 176.36C398.291 173.053 400.905 170.467 404.211 168.6C407.571 166.733 411.385 165.8 415.651 165.8C419.811 165.8 423.518 166.707 426.771 168.52C430.025 170.333 432.585 172.893 434.451 176.2C436.318 179.507 437.251 183.4 437.251 187.88C437.251 188.307 437.225 188.787 437.171 189.32C437.171 189.853 437.145 190.36 437.091 190.84H401.491V184.2H431.811L427.891 186.28C427.945 183.827 427.438 181.667 426.371 179.8C425.305 177.933 423.838 176.467 421.971 175.4C420.158 174.333 418.051 173.8 415.651 173.8C413.198 173.8 411.038 174.333 409.171 175.4C407.358 176.467 405.918 177.96 404.851 179.88C403.838 181.747 403.331 183.96 403.331 186.52V188.12C403.331 190.68 403.918 192.947 405.091 194.92C406.265 196.893 407.918 198.413 410.051 199.48C412.185 200.547 414.638 201.08 417.411 201.08C419.811 201.08 421.971 200.707 423.891 199.96C425.811 199.213 427.518 198.04 429.011 196.44L434.371 202.6C432.451 204.84 430.025 206.573 427.091 207.8C424.211 208.973 420.905 209.56 417.171 209.56ZM455.017 199.48L455.257 186.92L477.577 166.28H489.577L470.617 185.32L465.337 189.72L455.017 199.48ZM446.857 209V149.64H456.857V209H446.857ZM479.097 209L463.497 189.72L469.817 181.72L491.257 209H479.097ZM509.588 209.56C506.015 209.56 502.575 209.107 499.268 208.2C496.015 207.24 493.428 206.093 491.508 204.76L495.348 197.16C497.268 198.387 499.561 199.4 502.228 200.2C504.895 201 507.561 201.4 510.228 201.4C513.375 201.4 515.641 200.973 517.028 200.12C518.468 199.267 519.188 198.12 519.188 196.68C519.188 195.507 518.708 194.627 517.748 194.04C516.788 193.4 515.535 192.92 513.988 192.6C512.441 192.28 510.708 191.987 508.788 191.72C506.921 191.453 505.028 191.107 503.108 190.68C501.241 190.2 499.535 189.533 497.988 188.68C496.441 187.773 495.188 186.573 494.228 185.08C493.268 183.587 492.788 181.613 492.788 179.16C492.788 176.44 493.561 174.093 495.108 172.12C496.655 170.093 498.815 168.547 501.588 167.48C504.415 166.36 507.748 165.8 511.588 165.8C514.468 165.8 517.375 166.12 520.308 166.76C523.241 167.4 525.668 168.307 527.588 169.48L523.748 177.08C521.721 175.853 519.668 175.027 517.588 174.6C515.561 174.12 513.535 173.88 511.508 173.88C508.468 173.88 506.201 174.333 504.708 175.24C503.268 176.147 502.548 177.293 502.548 178.68C502.548 179.96 503.028 180.92 503.988 181.56C504.948 182.2 506.201 182.707 507.748 183.08C509.295 183.453 511.001 183.773 512.868 184.04C514.788 184.253 516.681 184.6 518.548 185.08C520.415 185.56 522.121 186.227 523.668 187.08C525.268 187.88 526.548 189.027 527.508 190.52C528.468 192.013 528.948 193.96 528.948 196.36C528.948 199.027 528.148 201.347 526.548 203.32C525.001 205.293 522.788 206.84 519.908 207.96C517.028 209.027 513.588 209.56 509.588 209.56ZM557.64 209.56C552.893 209.56 548.733 208.627 545.16 206.76C541.64 204.84 538.893 202.227 536.92 198.92C535 195.613 534.04 191.853 534.04 187.64C534.04 183.373 534.973 179.613 536.84 176.36C538.76 173.053 541.373 170.467 544.68 168.6C548.04 166.733 551.853 165.8 556.12 165.8C560.28 165.8 563.987 166.707 567.24 168.52C570.493 170.333 573.053 172.893 574.92 176.2C576.787 179.507 577.72 183.4 577.72 187.88C577.72 188.307 577.693 188.787 577.64 189.32C577.64 189.853 577.613 190.36 577.56 190.84H541.96V184.2H572.28L568.36 186.28C568.413 183.827 567.907 181.667 566.84 179.8C565.773 177.933 564.307 176.467 562.44 175.4C560.627 174.333 558.52 173.8 556.12 173.8C553.667 173.8 551.507 174.333 549.64 175.4C547.827 176.467 546.387 177.96 545.32 179.88C544.307 181.747 543.8 183.96 543.8 186.52V188.12C543.8 190.68 544.387 192.947 545.56 194.92C546.733 196.893 548.387 198.413 550.52 199.48C552.653 200.547 555.107 201.08 557.88 201.08C560.28 201.08 562.44 200.707 564.36 199.96C566.28 199.213 567.987 198.04 569.48 196.44L574.84 202.6C572.92 204.84 570.493 206.573 567.56 207.8C564.68 208.973 561.373 209.56 557.64 209.56ZM590.064 225.08C587.984 225.08 585.904 224.733 583.824 224.04C581.744 223.347 580.011 222.387 578.624 221.16L582.624 213.8C583.638 214.707 584.784 215.427 586.064 215.96C587.344 216.493 588.651 216.76 589.984 216.76C591.798 216.76 593.264 216.307 594.384 215.4C595.504 214.493 596.544 212.973 597.504 210.84L599.984 205.24L600.784 204.04L616.944 166.28H626.544L606.544 212.44C605.211 215.64 603.718 218.173 602.064 220.04C600.464 221.907 598.651 223.213 596.624 223.96C594.651 224.707 592.464 225.08 590.064 225.08ZM598.864 210.52L579.584 166.28H589.984L605.664 203.16L598.864 210.52ZM651.703 209.56C646.956 209.56 642.796 208.627 639.223 206.76C635.703 204.84 632.956 202.227 630.983 198.92C629.063 195.613 628.103 191.853 628.103 187.64C628.103 183.373 629.036 179.613 630.903 176.36C632.823 173.053 635.436 170.467 638.743 168.6C642.103 166.733 645.916 165.8 650.183 165.8C654.343 165.8 658.049 166.707 661.303 168.52C664.556 170.333 667.116 172.893 668.983 176.2C670.849 179.507 671.783 183.4 671.783 187.88C671.783 188.307 671.756 188.787 671.703 189.32C671.703 189.853 671.676 190.36 671.623 190.84H636.023V184.2H666.343L662.423 186.28C662.476 183.827 661.969 181.667 660.903 179.8C659.836 177.933 658.369 176.467 656.503 175.4C654.689 174.333 652.583 173.8 650.183 173.8C647.729 173.8 645.569 174.333 643.703 175.4C641.889 176.467 640.449 177.96 639.383 179.88C638.369 181.747 637.863 183.96 637.863 186.52V188.12C637.863 190.68 638.449 192.947 639.623 194.92C640.796 196.893 642.449 198.413 644.583 199.48C646.716 200.547 649.169 201.08 651.943 201.08C654.343 201.08 656.503 200.707 658.423 199.96C660.343 199.213 662.049 198.04 663.543 196.44L668.903 202.6C666.983 204.84 664.556 206.573 661.623 207.8C658.743 208.973 655.436 209.56 651.703 209.56ZM691.967 209L673.647 166.28H684.047L699.807 203.96H694.687L711.007 166.28H720.607L702.287 209H691.967ZM726.857 209V166.28H736.857V209H726.857ZM731.897 159.24C730.03 159.24 728.484 158.653 727.257 157.48C726.084 156.307 725.497 154.893 725.497 153.24C725.497 151.533 726.084 150.12 727.257 149C728.484 147.827 730.03 147.24 731.897 147.24C733.764 147.24 735.284 147.8 736.457 148.92C737.684 149.987 738.297 151.347 738.297 153C738.297 154.76 737.71 156.253 736.537 157.48C735.364 158.653 733.817 159.24 731.897 159.24ZM769.582 209.56C765.102 209.56 761.102 208.627 757.582 206.76C754.115 204.84 751.395 202.227 749.422 198.92C747.449 195.613 746.462 191.853 746.462 187.64C746.462 183.373 747.449 179.613 749.422 176.36C751.395 173.053 754.115 170.467 757.582 168.6C761.102 166.733 765.102 165.8 769.582 165.8C773.742 165.8 777.395 166.653 780.542 168.36C783.742 170.013 786.169 172.467 787.822 175.72L780.142 180.2C778.862 178.173 777.289 176.68 775.422 175.72C773.609 174.76 771.635 174.28 769.502 174.28C767.049 174.28 764.835 174.813 762.862 175.88C760.889 176.947 759.342 178.493 758.222 180.52C757.102 182.493 756.542 184.867 756.542 187.64C756.542 190.413 757.102 192.813 758.222 194.84C759.342 196.813 760.889 198.333 762.862 199.4C764.835 200.467 767.049 201 769.502 201C771.635 201 773.609 200.52 775.422 199.56C777.289 198.6 778.862 197.107 780.142 195.08L787.822 199.56C786.169 202.76 783.742 205.24 780.542 207C777.395 208.707 773.742 209.56 769.582 209.56ZM820.316 165.8C823.729 165.8 826.769 166.467 829.436 167.8C832.156 169.133 834.289 171.187 835.836 173.96C837.382 176.68 838.156 180.2 838.156 184.52V209H828.156V185.8C828.156 182.013 827.249 179.187 825.436 177.32C823.676 175.453 821.196 174.52 817.996 174.52C815.649 174.52 813.569 175 811.756 175.96C809.942 176.92 808.529 178.36 807.516 180.28C806.556 182.147 806.076 184.52 806.076 187.4V209H796.076V149.64H806.076V177.8L803.916 174.28C805.409 171.56 807.569 169.48 810.396 168.04C813.276 166.547 816.582 165.8 820.316 165.8Z" fill="white"/>
<path d="M455.8 268L468.4 240H473.52L486.16 268H480.72L469.88 242.76H471.96L461.16 268H455.8ZM461.6 261.52L463 257.44H478.12L479.52 261.52H461.6ZM501.361 246.4C503.068 246.4 504.588 246.733 505.921 247.4C507.281 248.067 508.348 249.093 509.121 250.48C509.894 251.84 510.281 253.6 510.281 255.76V268H505.281V256.4C505.281 254.507 504.828 253.093 503.921 252.16C503.041 251.227 501.801 250.76 500.201 250.76C499.028 250.76 497.988 251 497.081 251.48C496.174 251.96 495.468 252.68 494.961 253.64C494.481 254.573 494.241 255.76 494.241 257.2V268H489.241V246.64H494.001V252.4L493.161 250.64C493.908 249.28 494.988 248.24 496.401 247.52C497.841 246.773 499.494 246.4 501.361 246.4ZM525.703 268.28C523.649 268.28 521.796 267.827 520.143 266.92C518.516 265.987 517.236 264.707 516.303 263.08C515.369 261.453 514.903 259.533 514.903 257.32C514.903 255.107 515.369 253.187 516.303 251.56C517.236 249.933 518.516 248.667 520.143 247.76C521.796 246.853 523.649 246.4 525.703 246.4C527.489 246.4 529.089 246.8 530.503 247.6C531.916 248.373 533.036 249.56 533.863 251.16C534.689 252.76 535.103 254.813 535.103 257.32C535.103 259.8 534.703 261.853 533.903 263.48C533.103 265.08 531.996 266.28 530.583 267.08C529.169 267.88 527.543 268.28 525.703 268.28ZM526.303 264C527.503 264 528.569 263.733 529.503 263.2C530.463 262.667 531.223 261.893 531.783 260.88C532.369 259.867 532.663 258.68 532.663 257.32C532.663 255.933 532.369 254.747 531.783 253.76C531.223 252.747 530.463 251.973 529.503 251.44C528.569 250.907 527.503 250.64 526.303 250.64C525.103 250.64 524.023 250.907 523.063 251.44C522.129 251.973 521.369 252.747 520.783 253.76C520.223 254.747 519.943 255.933 519.943 257.32C519.943 258.68 520.223 259.867 520.783 260.88C521.369 261.893 522.129 262.667 523.063 263.2C524.023 263.733 525.103 264 526.303 264ZM532.783 268V262.96L532.983 257.28L532.583 251.6V238.32H537.543V268H532.783ZM544.124 268V246.64H548.884V252.52L548.324 250.8C548.964 249.36 549.964 248.267 551.324 247.52C552.71 246.773 554.43 246.4 556.484 246.4V251.16C556.27 251.107 556.07 251.08 555.884 251.08C555.697 251.053 555.51 251.04 555.324 251.04C553.43 251.04 551.924 251.6 550.804 252.72C549.684 253.813 549.124 255.453 549.124 257.64V268H544.124ZM570.13 268.28C567.943 268.28 565.997 267.813 564.29 266.88C562.583 265.92 561.237 264.613 560.25 262.96C559.263 261.307 558.77 259.427 558.77 257.32C558.77 255.187 559.263 253.307 560.25 251.68C561.237 250.027 562.583 248.733 564.29 247.8C565.997 246.867 567.943 246.4 570.13 246.4C572.343 246.4 574.303 246.867 576.01 247.8C577.743 248.733 579.09 250.013 580.05 251.64C581.037 253.267 581.53 255.16 581.53 257.32C581.53 259.427 581.037 261.307 580.05 262.96C579.09 264.613 577.743 265.92 576.01 266.88C574.303 267.813 572.343 268.28 570.13 268.28ZM570.13 264C571.357 264 572.45 263.733 573.41 263.2C574.37 262.667 575.117 261.893 575.65 260.88C576.21 259.867 576.49 258.68 576.49 257.32C576.49 255.933 576.21 254.747 575.65 253.76C575.117 252.747 574.37 251.973 573.41 251.44C572.45 250.907 571.37 250.64 570.17 250.64C568.943 250.64 567.85 250.907 566.89 251.44C565.957 251.973 565.21 252.747 564.65 253.76C564.09 254.747 563.81 255.933 563.81 257.32C563.81 258.68 564.09 259.867 564.65 260.88C565.21 261.893 565.957 262.667 566.89 263.2C567.85 263.733 568.93 264 570.13 264ZM586.311 268V246.64H591.311V268H586.311ZM588.831 243.12C587.898 243.12 587.125 242.827 586.511 242.24C585.925 241.653 585.631 240.947 585.631 240.12C585.631 239.267 585.925 238.56 586.511 238C587.125 237.413 587.898 237.12 588.831 237.12C589.765 237.12 590.525 237.4 591.111 237.96C591.725 238.493 592.031 239.173 592.031 240C592.031 240.88 591.738 241.627 591.151 242.24C590.565 242.827 589.791 243.12 588.831 243.12ZM606.914 268.28C604.86 268.28 603.007 267.827 601.354 266.92C599.727 265.987 598.447 264.707 597.514 263.08C596.58 261.453 596.114 259.533 596.114 257.32C596.114 255.107 596.58 253.187 597.514 251.56C598.447 249.933 599.727 248.667 601.354 247.76C603.007 246.853 604.86 246.4 606.914 246.4C608.7 246.4 610.3 246.8 611.714 247.6C613.127 248.373 614.247 249.56 615.074 251.16C615.9 252.76 616.314 254.813 616.314 257.32C616.314 259.8 615.914 261.853 615.114 263.48C614.314 265.08 613.207 266.28 611.794 267.08C610.38 267.88 608.754 268.28 606.914 268.28ZM607.514 264C608.714 264 609.78 263.733 610.714 263.2C611.674 262.667 612.434 261.893 612.994 260.88C613.58 259.867 613.874 258.68 613.874 257.32C613.874 255.933 613.58 254.747 612.994 253.76C612.434 252.747 611.674 251.973 610.714 251.44C609.78 250.907 608.714 250.64 607.514 250.64C606.314 250.64 605.234 250.907 604.274 251.44C603.34 251.973 602.58 252.747 601.994 253.76C601.434 254.747 601.154 255.933 601.154 257.32C601.154 258.68 601.434 259.867 601.994 260.88C602.58 261.893 603.34 262.667 604.274 263.2C605.234 263.733 606.314 264 607.514 264ZM613.994 268V262.96L614.194 257.28L613.794 251.6V238.32H618.754V268H613.994ZM636.869 268V240H649.109C652.149 240 654.816 240.587 657.109 241.76C659.403 242.933 661.189 244.56 662.469 246.64C663.749 248.72 664.389 251.173 664.389 254C664.389 256.8 663.749 259.253 662.469 261.36C661.189 263.44 659.403 265.067 657.109 266.24C654.816 267.413 652.149 268 649.109 268H636.869ZM642.069 263.6H648.869C650.976 263.6 652.789 263.2 654.309 262.4C655.856 261.6 657.043 260.48 657.869 259.04C658.723 257.6 659.149 255.92 659.149 254C659.149 252.053 658.723 250.373 657.869 248.96C657.043 247.52 655.856 246.4 654.309 245.6C652.789 244.8 650.976 244.4 648.869 244.4H642.069V263.6ZM679.476 268.28C677.103 268.28 675.023 267.813 673.236 266.88C671.476 265.92 670.103 264.613 669.116 262.96C668.156 261.307 667.676 259.427 667.676 257.32C667.676 255.187 668.143 253.307 669.076 251.68C670.036 250.027 671.343 248.733 672.996 247.8C674.676 246.867 676.583 246.4 678.716 246.4C680.796 246.4 682.65 246.853 684.276 247.76C685.903 248.667 687.183 249.947 688.116 251.6C689.05 253.253 689.516 255.2 689.516 257.44C689.516 257.653 689.503 257.893 689.476 258.16C689.476 258.427 689.463 258.68 689.436 258.92H671.636V255.6H686.796L684.836 256.64C684.863 255.413 684.61 254.333 684.076 253.4C683.543 252.467 682.81 251.733 681.876 251.2C680.97 250.667 679.916 250.4 678.716 250.4C677.49 250.4 676.41 250.667 675.476 251.2C674.57 251.733 673.85 252.48 673.316 253.44C672.81 254.373 672.556 255.48 672.556 256.76V257.56C672.556 258.84 672.85 259.973 673.436 260.96C674.023 261.947 674.85 262.707 675.916 263.24C676.983 263.773 678.21 264.04 679.596 264.04C680.796 264.04 681.876 263.853 682.836 263.48C683.796 263.107 684.65 262.52 685.396 261.72L688.076 264.8C687.116 265.92 685.903 266.787 684.436 267.4C682.996 267.987 681.343 268.28 679.476 268.28ZM699.608 268L690.448 246.64H695.648L703.528 265.48H700.968L709.128 246.64H713.928L704.768 268H699.608ZM726.508 268.28C724.134 268.28 722.054 267.813 720.268 266.88C718.508 265.92 717.134 264.613 716.148 262.96C715.188 261.307 714.708 259.427 714.708 257.32C714.708 255.187 715.174 253.307 716.108 251.68C717.068 250.027 718.374 248.733 720.028 247.8C721.708 246.867 723.614 246.4 725.748 246.4C727.828 246.4 729.681 246.853 731.308 247.76C732.934 248.667 734.214 249.947 735.148 251.6C736.081 253.253 736.548 255.2 736.548 257.44C736.548 257.653 736.534 257.893 736.508 258.16C736.508 258.427 736.494 258.68 736.468 258.92H718.668V255.6H733.828L731.868 256.64C731.894 255.413 731.641 254.333 731.108 253.4C730.574 252.467 729.841 251.733 728.908 251.2C728.001 250.667 726.948 250.4 725.748 250.4C724.521 250.4 723.441 250.667 722.508 251.2C721.601 251.733 720.881 252.48 720.348 253.44C719.841 254.373 719.588 255.48 719.588 256.76V257.56C719.588 258.84 719.881 259.973 720.468 260.96C721.054 261.947 721.881 262.707 722.948 263.24C724.014 263.773 725.241 264.04 726.628 264.04C727.828 264.04 728.908 263.853 729.868 263.48C730.828 263.107 731.681 262.52 732.428 261.72L735.108 264.8C734.148 265.92 732.934 266.787 731.468 267.4C730.028 267.987 728.374 268.28 726.508 268.28ZM741.35 268V238.32H746.35V268H741.35ZM762.513 268.28C760.326 268.28 758.379 267.813 756.673 266.88C754.966 265.92 753.619 264.613 752.633 262.96C751.646 261.307 751.153 259.427 751.153 257.32C751.153 255.187 751.646 253.307 752.633 251.68C753.619 250.027 754.966 248.733 756.673 247.8C758.379 246.867 760.326 246.4 762.513 246.4C764.726 246.4 766.686 246.867 768.393 247.8C770.126 248.733 771.473 250.013 772.433 251.64C773.419 253.267 773.913 255.16 773.913 257.32C773.913 259.427 773.419 261.307 772.433 262.96C771.473 264.613 770.126 265.92 768.393 266.88C766.686 267.813 764.726 268.28 762.513 268.28ZM762.513 264C763.739 264 764.833 263.733 765.793 263.2C766.753 262.667 767.499 261.893 768.033 260.88C768.593 259.867 768.873 258.68 768.873 257.32C768.873 255.933 768.593 254.747 768.033 253.76C767.499 252.747 766.753 251.973 765.793 251.44C764.833 250.907 763.753 250.64 762.553 250.64C761.326 250.64 760.233 250.907 759.273 251.44C758.339 251.973 757.593 252.747 757.033 253.76C756.473 254.747 756.193 255.933 756.193 257.32C756.193 258.68 756.473 259.867 757.033 260.88C757.593 261.893 758.339 262.667 759.273 263.2C760.233 263.733 761.313 264 762.513 264ZM790.534 268.28C788.801 268.28 787.214 267.88 785.774 267.08C784.361 266.28 783.227 265.08 782.374 263.48C781.547 261.853 781.134 259.8 781.134 257.32C781.134 254.813 781.534 252.76 782.334 251.16C783.161 249.56 784.281 248.373 785.694 247.6C787.107 246.8 788.721 246.4 790.534 246.4C792.641 246.4 794.494 246.853 796.094 247.76C797.721 248.667 799.001 249.933 799.934 251.56C800.894 253.187 801.374 255.107 801.374 257.32C801.374 259.533 800.894 261.467 799.934 263.12C799.001 264.747 797.721 266.013 796.094 266.92C794.494 267.827 792.641 268.28 790.534 268.28ZM778.694 275.76V246.64H783.454V251.68L783.294 257.36L783.694 263.04V275.76H778.694ZM789.974 264C791.174 264 792.241 263.733 793.174 263.2C794.134 262.667 794.894 261.893 795.454 260.88C796.014 259.867 796.294 258.68 796.294 257.32C796.294 255.933 796.014 254.747 795.454 253.76C794.894 252.747 794.134 251.973 793.174 251.44C792.241 250.907 791.174 250.64 789.974 250.64C788.774 250.64 787.694 250.907 786.734 251.44C785.774 251.973 785.014 252.747 784.454 253.76C783.894 254.747 783.614 255.933 783.614 257.32C783.614 258.68 783.894 259.867 784.454 260.88C785.014 261.893 785.774 262.667 786.734 263.2C787.694 263.733 788.774 264 789.974 264ZM816.156 268.28C813.783 268.28 811.703 267.813 809.916 266.88C808.156 265.92 806.783 264.613 805.796 262.96C804.836 261.307 804.356 259.427 804.356 257.32C804.356 255.187 804.823 253.307 805.756 251.68C806.716 250.027 808.023 248.733 809.676 247.8C811.356 246.867 813.263 246.4 815.396 246.4C817.476 246.4 819.329 246.853 820.956 247.76C822.583 248.667 823.863 249.947 824.796 251.6C825.729 253.253 826.196 255.2 826.196 257.44C826.196 257.653 826.183 257.893 826.156 258.16C826.156 258.427 826.143 258.68 826.116 258.92H808.316V255.6H823.476L821.516 256.64C821.543 255.413 821.289 254.333 820.756 253.4C820.223 252.467 819.489 251.733 818.556 251.2C817.649 250.667 816.596 250.4 815.396 250.4C814.169 250.4 813.089 250.667 812.156 251.2C811.249 251.733 810.529 252.48 809.996 253.44C809.489 254.373 809.236 255.48 809.236 256.76V257.56C809.236 258.84 809.529 259.973 810.116 260.96C810.703 261.947 811.529 262.707 812.596 263.24C813.663 263.773 814.889 264.04 816.276 264.04C817.476 264.04 818.556 263.853 819.516 263.48C820.476 263.107 821.329 262.52 822.076 261.72L824.756 264.8C823.796 265.92 822.583 266.787 821.116 267.4C819.676 267.987 818.023 268.28 816.156 268.28ZM830.999 268V246.64H835.759V252.52L835.199 250.8C835.839 249.36 836.839 248.267 838.199 247.52C839.585 246.773 841.305 246.4 843.359 246.4V251.16C843.145 251.107 842.945 251.08 842.759 251.08C842.572 251.053 842.385 251.04 842.199 251.04C840.305 251.04 838.799 251.6 837.679 252.72C836.559 253.813 835.999 255.453 835.999 257.64V268H830.999Z" fill="#343434"/>
<g clip-path="url(#clip1_1_2)">
<path d="M349.552 89.8126C348.863 90.4538 348.172 89.6826 348.172 89.6826C348.172 89.6826 336.666 77.4036 335.918 76.851C334.864 76.0784 332.606 74.864 330.335 77.1871C329.388 78.1525 327.843 80.3032 330.687 83.7884C331.303 84.5407 349.228 103.568 350.274 104.597C350.274 104.597 358.558 112.714 363.578 115.776C364.969 116.624 366.534 117.524 368.363 118.155C370.186 118.787 372.247 119.226 374.422 119.233C376.597 119.266 378.854 118.856 380.989 118.082C383.123 117.302 385.114 116.166 386.925 114.853C387.37 114.517 387.821 114.182 388.241 113.821L389.457 112.825C390.304 112.122 391.094 111.381 391.853 110.627C393.377 109.12 394.752 107.506 395.964 105.855C397.17 104.196 398.195 102.481 399.013 100.772C399.832 99.0622 400.407 97.3455 400.757 95.7217C401.125 94.1043 401.23 92.5734 401.179 91.2357C401.171 89.8982 400.907 88.7535 400.691 87.8402C400.444 86.9268 400.178 86.2446 399.967 85.7938C399.763 85.3431 399.651 85.1052 399.651 85.1052C399.366 84.2979 399.094 83.5282 398.853 82.8336C398.172 80.8748 397.387 78.6783 396.57 76.4191C396.223 75.4616 396.062 75.0297 396.062 75.0297L396.068 75.0485C393.067 66.8064 389.841 58.3135 389.841 58.3135C389.353 56.818 387.536 56.2927 386.195 57.2504C382.322 60.0115 381.127 64.0572 382.474 68.3808L385.933 77.9683C386.423 79.0388 385.056 80.2714 384.146 79.5244C381.286 77.1766 375.24 70.7111 375.24 70.7111C372.537 68.1013 357.287 52.3526 356.266 51.3927C354.21 49.4666 351.614 48.4697 349.627 49.9188C347.597 51.399 347.026 53.697 348.973 56.2165C349.502 56.8997 364.912 73.2989 364.912 73.2989C365.809 74.2459 364.741 75.5796 363.751 74.6573C363.751 74.6573 344.579 54.5132 343.714 53.5726C341.753 51.428 338.592 50.9479 336.711 52.7036C334.873 54.4158 334.907 57.2347 336.899 59.4544C337.534 60.1567 351.039 74.5178 356.443 80.3998C356.804 80.7948 357.083 81.3208 356.544 81.8127C356.538 81.8189 355.992 82.4044 355.294 81.6519C353.825 80.0716 339.149 64.6687 338.333 63.8346C336.459 61.9153 333.937 61 331.899 62.8552C330.043 64.5422 329.733 67.4974 331.85 69.5925L349.626 88.5191C349.626 88.5191 350.205 89.2087 349.552 89.8126Z" fill="#FAC036"/>
<path d="M378.578 74.1919L380.078 75.8098C380.078 75.8098 371.429 84.0975 377.258 96.8935C377.258 96.8935 378.015 98.515 377.014 98.7801C377.014 98.7801 376.137 99.2645 375.146 96.7734C375.146 96.7672 369.259 84.6147 378.578 74.1919Z" fill="#E48C15"/>
<path d="M364.815 46.5172C364.815 46.5172 368.444 47.0802 371.793 50.6923C375.143 54.3106 376.682 58.9474 376.682 58.9474" stroke="#444444" stroke-width="4" stroke-miterlimit="10" stroke-linecap="round"/>
<path d="M373.68 42.3615C373.68 42.3615 376.718 43.9037 379.054 47.6934C381.391 51.4831 381.944 55.8601 381.944 55.8601" stroke="#444444" stroke-width="4" stroke-miterlimit="10" stroke-linecap="round"/>
<path d="M347.357 109.286C347.357 109.286 343.694 109.517 339.648 106.702C335.602 103.888 333.098 99.691 333.098 99.691" stroke="#444444" stroke-width="4" stroke-miterlimit="10" stroke-linecap="round"/>
<path d="M344.723 115.42C344.723 115.42 341.322 115.552 337.43 113.382C333.538 111.211 330.926 107.658 330.926 107.658" stroke="#444444" stroke-width="4" stroke-miterlimit="10" stroke-linecap="round"/>
</g>
</g>
<defs>
<clipPath id="clip0_1_2">
<rect width="1440" height="560" fill="white"/>
</clipPath>
<clipPath id="clip1_1_2">
<rect width="80" height="80" fill="white" transform="translate(325.288 40) rotate(0.206039)"/>
</clipPath>
</defs>
</svg>
