<svg xmlns="http://www.w3.org/2000/svg" version="1.1" xmlns:xlink="http://www.w3.org/1999/xlink" xmlns:svgjs="http://svgjs.dev/svgjs" width="1440" height="560" preserveAspectRatio="none" viewBox="0 0 1440 560"><g mask="url(&quot;#SvgjsMask1003&quot;)" fill="none"><rect width="1440" height="560" x="0" y="0" fill="rgba(65, 127, 92, 1)"></rect><path d="M0,523.756C93.115,498.599,153.032,416.179,230.755,359.062C302.594,306.269,394.292,277.544,439.553,200.737C486.836,120.499,482.827,23.645,483.291,-69.487C483.828,-177.186,509.775,-299.323,442.466,-383.399C375.019,-467.649,248.851,-464.55,144.619,-492.528C43.02,-519.799,-58.577,-572.81,-160.065,-545.131C-262.125,-517.296,-337.985,-431.933,-397.711,-344.618C-453.118,-263.617,-466.707,-166.14,-485.23,-69.766C-504.683,31.447,-535.61,132.805,-508.587,232.264C-479.025,341.066,-425.541,453.881,-327.721,509.945C-230.898,565.438,-107.735,552.863,0,523.756" fill="#3e7957"></path><path d="M1440 1246.547C1564.712 1219.365 1635.195 1092.847 1722.755 999.975 1790.095 928.549 1850.3020000000001 855.283 1892.464 766.633 1935.209 676.758 1960.722 583.315 1968.12 484.068 1977.188 362.41499999999996 2007.062 228.615 1940.174 126.596 1871.8690000000001 22.416000000000054 1737.511-11.15300000000002 1618.757-48.78899999999999 1497.789-87.12699999999995 1371.872-121.78999999999996 1248.363-92.65700000000004 1121.455-62.72199999999998 995.934 4.566000000000031 926.001 114.61700000000002 858.877 220.24900000000002 885.456 354.96500000000003 884.391 480.115 883.467 588.74 891.629 692.581 920.192 797.388 953.744 920.502 968.577 1059.882 1065.129 1143.3110000000001 1165.225 1229.8029999999999 1310.747 1274.719 1440 1246.547" fill="#448561"></path></g><defs><mask id="SvgjsMask1003"><rect width="1440" height="560" fill="#ffffff"></rect></mask></defs></svg>